<?xml version="1.0" encoding="UTF-8" standalone="no"?>
<!-- Created with Inkscape (http://www.inkscape.org/) -->

<svg
   xmlns:dc="http://purl.org/dc/elements/1.1/"
   xmlns:cc="http://creativecommons.org/ns#"
   xmlns:rdf="http://www.w3.org/1999/02/22-rdf-syntax-ns#"
   xmlns:svg="http://www.w3.org/2000/svg"
   xmlns="http://www.w3.org/2000/svg"
   xmlns:sodipodi="http://sodipodi.sourceforge.net/DTD/sodipodi-0.dtd"
   xmlns:inkscape="http://www.inkscape.org/namespaces/inkscape"
   width="440"
   height="80"
   viewBox="0 0 116.41666 21.166667"
   version="1.1"
   id="svg8"
   inkscape:version="0.92.0 r15299"
   sodipodi:docname="logo.svg">
  <defs
     id="defs2" />
  <sodipodi:namedview
     id="base"
     pagecolor="#ffffff"
     bordercolor="#666666"
     borderopacity="1.0"
     inkscape:pageopacity="0.0"
     inkscape:pageshadow="2"
     inkscape:zoom="1.979899"
     inkscape:cx="291.65312"
     inkscape:cy="99.019283"
     inkscape:document-units="mm"
     inkscape:current-layer="flowRoot4525"
     showgrid="false"
     inkscape:window-width="1680"
     inkscape:window-height="997"
     inkscape:window-x="-8"
     inkscape:window-y="-8"
     inkscape:window-maximized="1"
     units="px" />
  <metadata
     id="metadata5">
    <rdf:RDF>
      <cc:Work
         rdf:about="">
        <dc:format>image/svg+xml</dc:format>
        <dc:type
           rdf:resource="http://purl.org/dc/dcmitype/StillImage" />
        <dc:title></dc:title>
      </cc:Work>
    </rdf:RDF>
  </metadata>
  <g
     inkscape:label="Layer 1"
     inkscape:groupmode="layer"
     id="layer1"
     transform="translate(0,-275.83332)">
    <g
       id="g4505"
       transform="matrix(0.03611772,0,0,0.03611772,36.663691,92.514883)">
      <g
         transform="matrix(7.3255824,0,0,7.3255824,-1015.1164,-2561.4818)"
         style="font-style:normal;font-variant:normal;font-weight:normal;font-stretch:normal;font-size:40px;line-height:25px;font-family:Roboto;-inkscape-font-specification:Roboto;letter-spacing:0px;word-spacing:0px;fill:#000000;fill-opacity:1;stroke:none"
         id="flowRoot4517" />
      <g
         aria-label="Saobraćaj"
         transform="matrix(6.4304949,0,0,6.4304949,-769.80032,-2020.2508)"
         style="font-style:normal;font-variant:normal;font-weight:normal;font-stretch:normal;font-size:40px;line-height:25px;font-family:Roboto;-inkscape-font-specification:Roboto;letter-spacing:0px;word-spacing:0px;fill:#000000;fill-opacity:1;stroke:none"
         id="flowRoot4525">
        <g
           id="g4580"
           transform="matrix(2.220779,0,0,2.220779,-531.74586,293.49981)">
          <g
             transform="matrix(0.04280038,0,0,0.04280038,222.42726,365.95143)"
             id="g4515">
            <path
               id="rect2380"
               d="M 264.21875,1.5 1.5,264.21875 v 371.5625 L 264.21875,898.5 h 371.5625 L 898.5,635.78125 V 264.21875 L 635.78125,1.5 Z"
               style="fill:#ffffff;fill-opacity:1;fill-rule:nonzero;stroke:#000000;stroke-width:3;stroke-linecap:round;stroke-linejoin:round;stroke-miterlimit:2;stroke-dasharray:none;stroke-dashoffset:0;stroke-opacity:1"
               inkscape:connector-curvature="0" />
            <path
               inkscape:connector-curvature="0"
               style="fill:#d40000;fill-opacity:1;fill-rule:nonzero;stroke:none"
               d="M 276.02424,29.999999 30,276.02424 V 623.97575 L 276.02424,870 H 623.97575 L 870,623.97575 V 276.02424 L 623.97575,29.999999 Z"
               id="path2526" />
            <g
               id="flowRoot3091"
               style="font-style:normal;font-variant:normal;font-weight:normal;font-stretch:normal;font-size:40px;line-height:125%;font-family:'Transport Narrow (Alfabeto Stre';-inkscape-font-specification:'Transport Narrow (Alfabeto Stre';text-align:center;letter-spacing:0px;word-spacing:0px;writing-mode:lr-tb;text-anchor:middle;fill:#ffffff;fill-opacity:1;stroke:none"
               transform="matrix(13.203978,0,0,13.203978,-1041.6388,-3204.213)">
              <g
                 transform="translate(-0.98423032,-4.4804498e-6)"
                 id="g3117">
                <path
                   d="m 88.269531,276.77045 4.84375,4.49218 c 0.273428,0.23439 0.410147,0.52736 0.410156,0.87891 -9e-6,0.89845 -0.442717,1.34767 -1.328125,1.34766 -0.377612,1e-5 -0.683601,-0.1302 -0.917968,-0.39063 -0.50782,-0.53384 -0.924486,-1.06769 -1.25,-1.60156 l -3.710938,2.24609 c 0.585935,0.95054 1.14583,1.71876 1.679688,2.30469 1.119786,1.17188 2.506503,1.75782 4.160156,1.75781 1.653636,10e-6 3.053374,-0.5729 4.199219,-1.71875 1.145819,-1.14582 1.718736,-2.54556 1.71875,-4.19922 -1.4e-5,-1.65363 -0.546889,-3.04034 -1.640625,-4.16015 l -1.035157,-1.03516 -4.84375,-4.47265 c -0.273443,-0.22133 -0.410162,-0.51756 -0.410156,-0.88868 -6e-6,-0.37106 0.136713,-0.69333 0.410156,-0.96679 0.234369,-0.23435 0.540358,-0.35154 0.917969,-0.35157 0.377596,3e-5 0.683586,0.13675 0.917969,0.41016 0.61197,0.61201 1.028636,1.13935 1.25,1.58203 l 3.75,-2.26562 c -0.638034,-1.0156 -1.197929,-1.77732 -1.679688,-2.28516 -1.119802,-1.17184 -2.532561,-1.75778 -4.238281,-1.75781 -1.575527,3e-5 -2.949223,0.55992 -4.121094,1.67969 -1.171877,1.1719 -1.757814,2.57164 -1.757812,4.19921 -2e-6,1.60159 0.559894,2.98831 1.679687,4.16016 z"
                   style="fill:#ffffff"
                   id="path3109"
                   inkscape:connector-curvature="0" />
                <path
                   d="m 99.96875,265.54974 v 4.7461 h 2.67578 v 17.65625 h 5.25391 v -17.65625 h 2.55859 v -4.7461 z"
                   style="fill:#ffffff"
                   id="path3111"
                   inkscape:connector-curvature="0" />
                <path
                   d="m 114.08984,269.26068 c -1.06771,2.40888 -1.60156,4.88935 -1.60156,7.44141 0,2.53908 0.53385,5.07163 1.60156,7.59766 1.47135,2.51303 3.21614,3.76953 5.23438,3.76953 2.0052,0 3.65884,-1.2565 4.96094,-3.76953 0.98957,-2.39582 1.48436,-4.87629 1.48437,-7.44141 -1e-5,-2.52602 -0.4948,-5.05857 -1.48437,-7.59766 -1.38022,-2.55205 -3.07293,-3.82809 -5.07813,-3.82812 -1.96615,3e-5 -3.67188,1.27607 -5.11719,3.82812 z m 3.88672,2.92969 c 0.20833,-1.34112 0.60546,-2.01169 1.19141,-2.01172 0.61197,3e-5 1.02864,0.6706 1.25,2.01172 0.20832,1.4844 0.31249,2.94924 0.3125,4.39453 -1e-5,1.41929 -0.10418,2.98179 -0.3125,4.6875 -0.32553,1.27606 -0.75522,1.91408 -1.28906,1.91406 -0.53387,2e-5 -0.91798,-0.65102 -1.15235,-1.95312 -0.27344,-1.26301 -0.41016,-2.67902 -0.41015,-4.24805 -1e-5,-1.56899 0.13671,-3.16729 0.41015,-4.79492 z"
                   style="fill:#ffffff"
                   id="path3113"
                   inkscape:connector-curvature="0" />
                <path
                   d="m 130.18359,265.49115 v 22.51953 h 5 v -8.32031 c 2.21354,-0.026 3.98437,-0.78775 5.3125,-2.28516 1.21093,-1.30206 1.8164,-2.91339 1.81641,-4.83398 -1e-5,-1.92055 -0.60548,-3.53839 -1.81641,-4.85352 -1.32813,-1.48434 -3.09896,-2.22653 -5.3125,-2.22656 z m 5.15625,4.58984 c 1.52343,0.0781 2.33723,0.89195 2.44141,2.44141 -0.13022,0.83335 -0.39715,1.4551 -0.80078,1.86523 -0.40366,0.41018 -0.95053,0.60224 -1.64063,0.57617 z"
                   style="fill:#ffffff"
                   id="path3115"
                   inkscape:connector-curvature="0" />
              </g>
            </g>
          </g>
          <path
             inkscape:connector-curvature="0"
             id="path4534"
             style="font-style:normal;font-variant:normal;font-weight:300;font-stretch:normal;font-family:Roboto;-inkscape-font-specification:'Roboto Light'"
             d="m 288.89258,391.01953 q 0,-2.36328 -1.66016,-3.73047 -1.66015,-1.38672 -6.07422,-2.61719 -4.41406,-1.25 -6.44531,-2.71484 -2.89062,-2.07031 -2.89062,-5.42969 0,-3.26172 2.67578,-5.29297 2.69531,-2.05078 6.875,-2.05078 2.83203,0 5.05859,1.09375 2.24609,1.09375 3.47656,3.04688 1.23047,1.95312 1.23047,4.35547 h -2.42187 q 0,-2.91016 -1.99219,-4.66797 -1.99219,-1.77735 -5.35156,-1.77735 -3.26172,0 -5.19532,1.46485 -1.93359,1.44531 -1.93359,3.78906 0,2.16797 1.73828,3.53516 1.73828,1.36718 5.56641,2.42187 3.82812,1.03516 5.80078,2.16797 1.97266,1.11328 2.96875,2.67578 0.99609,1.5625 0.99609,3.69141 0,3.35937 -2.69531,5.39062 -2.67578,2.03125 -7.07031,2.03125 -3.00781,0 -5.52735,-1.07422 -2.5,-1.07421 -3.80859,-3.00781 -1.28906,-1.93359 -1.28906,-4.43359 h 2.40234 q 0,3.00781 2.2461,4.74609 2.24609,1.73828 5.97656,1.73828 3.32031,0 5.33203,-1.46484 2.01172,-1.46484 2.01172,-3.88672 z" />
          <path
             inkscape:connector-curvature="0"
             id="path4536"
             style="font-style:normal;font-variant:normal;font-weight:300;font-stretch:normal;font-family:Roboto;-inkscape-font-specification:'Roboto Light'"
             d="m 309.26367,398.01172 q -0.35156,-0.9961 -0.44922,-2.94922 -1.23047,1.60156 -3.14453,2.48047 -1.89453,0.85937 -4.02344,0.85937 -3.04687,0 -4.9414,-1.69922 -1.875,-1.69921 -1.875,-4.29687 0,-3.08594 2.55859,-4.88281 2.57813,-1.79688 7.16797,-1.79688 h 4.23828 v -2.40234 q 0,-2.26563 -1.40625,-3.55469 -1.38672,-1.30859 -4.0625,-1.30859 -2.4414,0 -4.04297,1.25 -1.60156,1.25 -1.60156,3.00781 l -2.34375,-0.0195 q 0,-2.51953 2.34375,-4.35547 2.34375,-1.85547 5.76172,-1.85547 3.53516,0 5.56641,1.77734 2.05078,1.75782 2.10937,4.92188 v 10 q 0,3.06641 0.64453,4.58984 v 0.23438 z m -7.34375,-1.67969 q 2.34375,0 4.17969,-1.13281 1.85547,-1.13281 2.69531,-3.02735 v -4.64843 h -4.17969 q -3.49609,0.0391 -5.46875,1.28906 -1.97265,1.23047 -1.97265,3.39844 0,1.77734 1.30859,2.94922 1.32813,1.17187 3.4375,1.17187 z" />
          <path
             inkscape:connector-curvature="0"
             id="path4538"
             style="font-style:normal;font-variant:normal;font-weight:300;font-stretch:normal;font-family:Roboto;-inkscape-font-specification:'Roboto Light'"
             d="m 316.04102,387.13281 q 0,-3.04687 1.17187,-5.48828 1.19141,-2.44141 3.33984,-3.78906 2.16797,-1.36719 4.90235,-1.36719 4.21875,0 6.83594,2.96875 2.61718,2.94922 2.61718,7.83203 v 0.48828 q 0,3.06641 -1.1914,5.52735 -1.17188,2.4414 -3.32032,3.76953 -2.14843,1.32812 -4.90234,1.32812 -4.19922,0 -6.83594,-2.94922 -2.61718,-2.96875 -2.61718,-7.85156 z m 2.34375,0.64453 q 0,3.78907 1.95312,6.23047 1.97266,2.42188 5.15625,2.42188 3.16406,0 5.11719,-2.42188 1.97265,-2.4414 1.97265,-6.42578 v -0.44922 q 0,-2.42187 -0.89843,-4.43359 -0.89844,-2.01172 -2.51953,-3.10547 -1.6211,-1.11328 -3.71094,-1.11328 -3.125,0 -5.09766,2.46094 -1.97265,2.4414 -1.97265,6.40625 z" />
          <path
             inkscape:connector-curvature="0"
             id="path4540"
             style="font-style:normal;font-variant:normal;font-weight:300;font-stretch:normal;font-family:Roboto;-inkscape-font-specification:'Roboto Light'"
             d="m 356.76367,387.66016 q 0,4.9414 -2.1875,7.85156 -2.1875,2.89062 -5.8789,2.89062 -4.41407,0 -6.67969,-3.28125 l -0.0977,2.89063 h -2.1875 v -30 h 2.32422 v 11.93359 q 2.22656,-3.45703 6.60156,-3.45703 3.75,0 5.91797,2.87109 2.1875,2.85157 2.1875,7.94922 z M 354.41992,387.25 q 0,-4.17969 -1.62109,-6.44531 -1.6211,-2.28516 -4.57031,-2.28516 -2.2461,0 -3.8086,1.11328 -1.5625,1.09375 -2.36328,3.22266 v 9.53125 q 1.75781,3.98437 6.21094,3.98437 2.89062,0 4.51172,-2.28515 1.64062,-2.28516 1.64062,-6.83594 z" />
          <path
             inkscape:connector-curvature="0"
             id="path4542"
             style="font-style:normal;font-variant:normal;font-weight:300;font-stretch:normal;font-family:Roboto;-inkscape-font-specification:'Roboto Light'"
             d="m 371.70508,378.87109 q -0.74219,-0.13672 -1.58203,-0.13672 -2.1875,0 -3.71094,1.23047 -1.50391,1.21094 -2.14844,3.53516 v 14.51172 h -2.32422 v -21.13281 h 2.28516 l 0.0391,3.35937 q 1.85547,-3.75 5.95703,-3.75 0.97657,0 1.54297,0.25391 z" />
          <path
             inkscape:connector-curvature="0"
             id="path4544"
             style="font-style:normal;font-variant:normal;font-weight:300;font-stretch:normal;font-family:Roboto;-inkscape-font-specification:'Roboto Light'"
             d="m 387.93555,398.01172 q -0.35157,-0.9961 -0.44922,-2.94922 -1.23047,1.60156 -3.14453,2.48047 -1.89453,0.85937 -4.02344,0.85937 -3.04688,0 -4.94141,-1.69922 -1.875,-1.69921 -1.875,-4.29687 0,-3.08594 2.5586,-4.88281 2.57812,-1.79688 7.16797,-1.79688 h 4.23828 v -2.40234 q 0,-2.26563 -1.40625,-3.55469 -1.38672,-1.30859 -4.0625,-1.30859 -2.44141,0 -4.04297,1.25 -1.60156,1.25 -1.60156,3.00781 l -2.34375,-0.0195 q 0,-2.51953 2.34375,-4.35547 2.34375,-1.85547 5.76171,-1.85547 3.53516,0 5.56641,1.77734 2.05078,1.75782 2.10938,4.92188 v 10 q 0,3.06641 0.64453,4.58984 v 0.23438 z m -7.34375,-1.67969 q 2.34375,0 4.17968,-1.13281 1.85547,-1.13281 2.69532,-3.02735 v -4.64843 h -4.17969 q -3.49609,0.0391 -5.46875,1.28906 -1.97266,1.23047 -1.97266,3.39844 0,1.77734 1.3086,2.94922 1.32812,1.17187 3.4375,1.17187 z" />
          <path
             inkscape:connector-curvature="0"
             id="path4546"
             style="font-style:normal;font-variant:normal;font-weight:300;font-stretch:normal;font-family:Roboto;-inkscape-font-specification:'Roboto Light'"
             d="m 403.81445,396.42969 q 2.44141,0 4.08203,-1.36719 1.66016,-1.38672 1.79688,-3.57422 h 2.24609 q -0.0977,1.93359 -1.21093,3.53516 -1.11329,1.58203 -2.96875,2.48047 -1.83594,0.89843 -3.94532,0.89843 -4.16015,0 -6.60156,-2.89062 -2.42187,-2.89063 -2.42187,-7.77344 v -0.70312 q 0,-3.125 1.09375,-5.52735 1.09375,-2.40234 3.125,-3.71094 2.05078,-1.30859 4.78515,-1.30859 3.47656,0 5.72266,2.07031 2.26562,2.07032 2.42187,5.44922 h -2.24609 q -0.15625,-2.48047 -1.79688,-4.0039 -1.62109,-1.52344 -4.10156,-1.52344 -3.16406,0 -4.92187,2.28515 -1.73828,2.28516 -1.73828,6.40625 v 0.6836 q 0,4.04297 1.73828,6.30859 1.75781,2.26563 4.9414,2.26563 z m 2.01172,-28.1836 h 2.83203 l -4.51172,5.44922 h -2.05078 z" />
          <path
             inkscape:connector-curvature="0"
             id="path4548"
             style="font-style:normal;font-variant:normal;font-weight:300;font-stretch:normal;font-family:Roboto;-inkscape-font-specification:'Roboto Light'"
             d="m 429.9668,398.01172 q -0.35157,-0.9961 -0.44922,-2.94922 -1.23047,1.60156 -3.14453,2.48047 -1.89453,0.85937 -4.02344,0.85937 -3.04688,0 -4.94141,-1.69922 -1.875,-1.69921 -1.875,-4.29687 0,-3.08594 2.5586,-4.88281 2.57812,-1.79688 7.16797,-1.79688 h 4.23828 v -2.40234 q 0,-2.26563 -1.40625,-3.55469 -1.38672,-1.30859 -4.0625,-1.30859 -2.44141,0 -4.04297,1.25 -1.60156,1.25 -1.60156,3.00781 l -2.34375,-0.0195 q 0,-2.51953 2.34375,-4.35547 2.34375,-1.85547 5.76171,-1.85547 3.53516,0 5.56641,1.77734 2.05078,1.75782 2.10938,4.92188 v 10 q 0,3.06641 0.64453,4.58984 v 0.23438 z m -7.34375,-1.67969 q 2.34375,0 4.17968,-1.13281 1.85547,-1.13281 2.69532,-3.02735 v -4.64843 h -4.17969 q -3.49609,0.0391 -5.46875,1.28906 -1.97266,1.23047 -1.97266,3.39844 0,1.77734 1.3086,2.94922 1.32812,1.17187 3.4375,1.17187 z" />
          <path
             inkscape:connector-curvature="0"
             id="path4550"
             style="font-style:normal;font-variant:normal;font-weight:300;font-stretch:normal;font-family:Roboto;-inkscape-font-specification:'Roboto Light'"
             d="m 440.55273,376.87891 v 23.65234 q 0,2.92969 -1.40625,4.47266 -1.40625,1.54296 -4.14062,1.54296 -1.05469,0 -2.05078,-0.37109 l 0.0391,-1.93359 q 0.85938,0.2539 1.75781,0.2539 3.47657,0 3.47657,-4.0039 v -23.61328 z m -1.15234,-7.69532 q 0.76172,0 1.19141,0.46875 0.42968,0.44922 0.42968,1.11328 0,0.66407 -0.42968,1.11329 -0.42969,0.44921 -1.19141,0.44921 -0.74219,0 -1.17187,-0.44921 -0.41016,-0.44922 -0.41016,-1.11329 0,-0.66406 0.41016,-1.11328 0.42968,-0.46875 1.17187,-0.46875 z" />
        </g>
      </g>
    </g>
  </g>
</svg>
